{"title":"Later,Live With Jools Holland (BBC2,Alicia Keys,Jeff Beck,)s36eo","uid":5570433,"size":359822909,"categoryP":"video","categoryS":"music_videos","magnet":"?xt=urn:btih:a11bac3dd793fe454cd712bc6acb8ae11f64d52c&amp;dn=Later%2CLive+With+Jools+Holland+%28BBC2%2CAlicia+Keys%2CJeff+Beck%2C%29s36eo&amp;tr=udp%3A%2F%2Ftracker.openbittorrent.com%3A80&amp;tr=udp%3A%2F%2Fopen.demonii.com%3A1337&amp;tr=udp%3A%2F%2Ftracker.coppersurfer.tk%3A6969&amp;tr=udp%3A%2F%2Fexodus.desync.com%3A6969","seeders":0,"leechers":1,"uploader":"seanprince","files":-1,"time":1274233659,"description":"\n\n\n\n\n\n\n\n\nLONG LIVE TPB. :)\n\n\n\nLater,Live With Jools Holland (BBC2,Alicia Keys,Jeff Beck,)s36eo6[DTV-RIP-Divx]\n\nFirst Shown On BBC 2 On Tuesday 18th May 2010\n\nDescription:\n\nJoining Jools are Alicia Keys, who makes a welcome return to the studio to perform tracks from her chart-topping album The Element of Freedom; Yeasayer, the Brooklyn-based band also returning to the show, performing tunes from their ODD BLOOD album; White Rabbits, another Brooklyn band, who make their TV debut on the show with songs from their new It's Frightening long player; and guitar legend Jeff Beck, who is in the room to play a number from Emotion and Commotion, his highest-charting solo album in a career spanning more than four decades. Plus the Creole Choir of Cuba is on hand to perform in the studio.\n\nGeneral\n\nComplete name : Live With Jools Holland.s36eo6..divx.\nFormat : AVI\nFormat/Info : Audio Video Interleave\nFile size : 343 MiB\nDuration : 30mn 38s\nOverall bit rate : 1 566 Kbps\n\nVideo\nID : 0\nFormat : MPEG-4 Visual\nFormat settings, BVOP : Yes\nFormat settings, QPel : No\nFormat settings, GMC : No warppoints\nFormat settings, Matrix : Default (H.263)\nMuxing mode : Packed bitstream\nCodec ID : DX50\nCodec ID/Hint : DivX 5\nDuration : 30mn 38s\nBit rate : 1 300 Kbps\nWidth : 688 pixels\nHeight : 384 pixels\nDisplay aspect ratio : 16/9\nFrame rate : 25.000 fps\nResolution : 24 bits\nColorimetry : 4:2:0\nScan type : Progressive\nBits/(Pixel*Frame) : 0.197\nStream size : 285 MiB (83%)\nTitle : Video\nWriting library : DivX 6.8.2 (UTC 2008-05-17)\n\nAudio\nID : 1\nFormat : AC-3\nFormat/Info : Audio Coding 3\nCodec ID : 2000\nDuration : 30mn 37s\nBit rate mode : Constant\nBit rate : 256 Kbps\nChannel(s) : 2 channels\nChannel positions : L R\nSampling rate : 48.0 KHz\nStream size : 56.1 MiB (16%)\nAlignment : Split accross interleaves\nInterleave, duration : 40 ms (1.00 video frame)\nInterleave, preload duration : 500 ms\n","torrent":{"xt":"urn:btih:a11bac3dd793fe454cd712bc6acb8ae11f64d52c","amp;dn":"Later%2CLive+With+Jools+Holland+%28BBC2%2CAlicia+Keys%2CJeff+Beck%2C%29s36eo","amp;tr":["udp%3A%2F%2Ftracker.openbittorrent.com%3A80","udp%3A%2F%2Fopen.demonii.com%3A1337","udp%3A%2F%2Ftracker.coppersurfer.tk%3A6969","udp%3A%2F%2Fexodus.desync.com%3A6969"],"infoHash":"a11bac3dd793fe454cd712bc6acb8ae11f64d52c","infoHashBuffer":{"type":"Buffer","data":[161,27,172,61,215,147,254,69,76,215,18,188,106,203,138,225,31,100,213,44]},"announce":[],"urlList":[]}}